<?xml version="1.0" encoding="utf-8"?>
<!-- Generator: Adobe Illustrator 19.1.0, SVG Export Plug-In . SVG Version: 6.00 Build 0)  -->
<svg version="1.1" id="Layer_1" xmlns="http://www.w3.org/2000/svg" xmlns:xlink="http://www.w3.org/1999/xlink" x="0px" y="0px"
	 viewBox="0 0 64 64" style="enable-background:new 0 0 64 64;" xml:space="preserve">
<style type="text/css">
	.st0{fill:#F3F3EB;}
</style>
<path class="st0" d="M32,0C14.3,0,0,14.3,0,32s14.3,32,32,32s32-14.3,32-32S49.7,0,32,0z M30.9,48.5c-1.9,0-3.4-1.5-3.4-3.4
	c0-2,1.5-3.5,3.4-3.5c2,0,3.4,1.5,3.4,3.5C34.3,47,32.9,48.5,30.9,48.5z M35.5,31.2c-1.6,1.1-1.5,2.2-1.5,4.1V38h-6v-3.4
	c0-3.4,1.3-5.1,3.4-6.5c2-1.4,3-2.2,3-4.6c0-2.2-0.8-3.1-3.4-3.1c-2.2,0-4,1.1-5.1,1.8l-2.1-3.8c2-1.5,4.6-2.6,7.9-2.6
	c4.8,0,8.5,2.1,8.5,7.4C40.3,27.6,38.4,29.3,35.5,31.2z"/>
</svg>
