<?xml version="1.0" encoding="utf-8"?>
<!-- Generator: Adobe Illustrator 19.1.0, SVG Export Plug-In . SVG Version: 6.00 Build 0)  -->
<svg version="1.1" id="Layer_1" xmlns="http://www.w3.org/2000/svg" xmlns:xlink="http://www.w3.org/1999/xlink" x="0px" y="0px"
	 viewBox="0 0 64 64" style="enable-background:new 0 0 64 64;" xml:space="preserve">
<style type="text/css">
	.st0{fill-rule:evenodd;clip-rule:evenodd;fill:#F3F3EB;}
</style>
<path class="st0" d="M32,0C14.3,0,0,14.3,0,32s14.3,32,32,32s32-14.3,32-32S49.7,0,32,0z M31.9,48.1c-4.3,0-8.3-1.7-11.3-4.7
	l-0.3-0.3l3.4-3.4L24,40c2.1,2.1,4.9,3.3,7.9,3.3c6.1,0,11.2-5,11.2-11.2s-5-11.2-11.2-11.2c-3.1,0-6,1-8.2,3.3l4.2,3.8H16V16.7
	l4.4,4.4c3-3.2,7.2-5,11.6-5c8.8,0,16,7.2,16,16S40.7,48.1,31.9,48.1z"/>
</svg>
